<svg xmlns="http://www.w3.org/2000/svg" xmlns:xlink="http://www.w3.org/1999/xlink" viewBox="0 0 200 200"><defs><style>.a{fill:none;}.b{clip-path:url(#a);}.c{fill:#31495d;}.d{fill:#324b5e;}.e{fill:#324c60;}.f{fill:#324d61;}.g{fill:#334f62;}.h{fill:#335064;}.i{fill:#335165;}.j{fill:#335367;}.k{fill:#345468;}.l{fill:#345569;}.m{fill:#34576a;}.n{fill:#34586c;}.o{fill:#34596d;}.p{fill:#355a6e;}.q{fill:#355b70;}.r{fill:#355d71;}.s{fill:#355e72;}.t{fill:#355f73;}.u{fill:#356075;}.v{fill:#356176;}.w{fill:#356277;}.x{fill:#356478;}.y{fill:#356579;}.z{fill:#35667a;}.aa{fill:#36677c;}.ab{fill:#36687d;}.ac{fill:#36697e;}.ad{fill:#366a7f;}.ae{fill:#366b80;}.af{fill:#366c81;}.ag{fill:#366d82;}.ah{fill:#366e83;}.ai{fill:#366f85;}.aj{fill:#367086;}.ak{fill:#367187;}.al{fill:#367288;}.am{fill:#367389;}.an{fill:#36748a;}.ao{fill:#35758b;}.ap{fill:#35768c;}.aq{fill:#35778d;}.ar{fill:#35788e;}.as{fill:#35798f;}.at{fill:#357a90;}.au{fill:#357b91;}.av{fill:#357c92;}.aw{fill:#357c93;}.ax{fill:#347d94;}.ay{fill:#347e94;}.az{fill:#347f95;}.ba{fill:#347f96;}.bb{fill:#348097;}.bc{fill:#348197;}.bd{fill:#348198;}.be{fill:#338299;}.bf{fill:#338399;}.bg{fill:#33839a;}.bh{fill:#33849b;}.bi{fill:#33859c;}.bj{fill:#33869d;}.bk{fill:#32869e;}.bl{fill:#32879e;}.bm{fill:#32879f;}.bn{fill:#32889f;}.bo{fill:#3288a0;}.bp{fill:#3289a0;}.bq{fill:#3289a1;}.br{fill:#328aa1;}.bs{fill:#328aa2;}.bt{fill:#328ba2;}.bu{fill:#318ba2;}.bv{fill:#318ba3;}.bw{fill:#318ca3;}.bx{fill:#318ca4;}.by{fill:#31465a;}.bz{fill:#31485c;}.ca{clip-path:url(#b);}.cb{fill:#e0e0e0;}</style><clipPath id="a"><path class="a" d="M156.78,41.89C135.67,20.78,88.49,29.48,57.86,60.11s-37.28,72.36-16.17,93.47,72.45,6.88,103.08-23.74S177.9,63,156.78,41.89Zm-31,70.56c-27,27-69.65,42-85.39,26.27s-7.5-50.1,19.47-77.07,65.9-37.23,81.63-21.49S152.74,85.49,125.78,112.45Z"/></clipPath><clipPath id="b"><path class="a" d="M45.45,45.38c-20.31,21.89-9.84,68.71,21.91,98.17s73.71,34.54,94,12.65,4.16-72.65-27.59-102.11S65.75,23.49,45.45,45.38Zm71.67,28.34c27.95,25.93,44.58,68,29.45,84.34s-49.79,9.37-77.74-16.56S29.15,77,44.29,60.73,89.16,47.79,117.12,73.72Z"/></clipPath></defs><title>synctella favicon</title><g class="b"><polygon class="c" points="157.14 154.45 157.22 154.16 157.22 154.45 157.14 154.45"/><polygon class="d" points="156.34 154.45 157.22 151.42 157.22 154.16 157.14 154.45 156.34 154.45"/><polygon class="e" points="155.53 154.45 157.22 148.68 157.22 151.42 156.34 154.45 155.53 154.45"/><polygon class="f" points="154.73 154.45 157.22 145.94 157.22 148.68 155.53 154.45 154.73 154.45"/><polygon class="g" points="153.93 154.45 157.22 143.2 157.22 145.94 154.73 154.45 153.93 154.45"/><polygon class="h" points="153.13 154.45 157.22 140.46 157.22 143.2 153.93 154.45 153.13 154.45"/><polygon class="i" points="152.33 154.45 157.22 137.72 157.22 140.46 153.13 154.45 152.33 154.45"/><polygon class="j" points="151.53 154.45 157.22 134.98 157.22 137.72 152.33 154.45 151.53 154.45"/><polygon class="k" points="150.73 154.45 157.22 132.24 157.22 134.98 151.53 154.45 150.73 154.45"/><polygon class="l" points="149.93 154.45 157.22 129.5 157.22 132.24 150.73 154.45 149.93 154.45"/><polygon class="m" points="149.13 154.45 157.22 126.76 157.22 129.5 149.93 154.45 149.13 154.45"/><polygon class="n" points="148.32 154.45 157.22 124.02 157.22 126.76 149.13 154.45 148.32 154.45"/><polygon class="o" points="147.52 154.45 157.22 121.28 157.22 124.02 148.32 154.45 147.52 154.45"/><polygon class="p" points="146.72 154.45 157.22 118.54 157.22 121.28 147.52 154.45 146.72 154.45"/><polygon class="q" points="145.92 154.45 157.22 115.8 157.22 118.54 146.72 154.45 145.92 154.45"/><polygon class="r" points="145.12 154.45 157.22 113.06 157.22 115.8 145.92 154.45 145.12 154.45"/><polygon class="s" points="144.32 154.45 157.22 110.31 157.22 113.06 145.12 154.45 144.32 154.45"/><polygon class="t" points="143.52 154.45 157.22 107.57 157.22 110.31 144.32 154.45 143.52 154.45"/><polygon class="u" points="142.72 154.45 157.22 104.83 157.22 107.57 143.52 154.45 142.72 154.45"/><polygon class="v" points="141.92 154.45 157.22 102.09 157.22 104.83 142.72 154.45 141.92 154.45"/><polygon class="w" points="141.12 154.45 157.22 99.35 157.22 102.09 141.92 154.45 141.12 154.45"/><polygon class="x" points="140.31 154.45 157.22 96.61 157.22 99.35 141.12 154.45 140.31 154.45"/><polygon class="y" points="139.51 154.45 157.22 93.87 157.22 96.61 140.31 154.45 139.51 154.45"/><polygon class="z" points="138.71 154.45 157.22 91.13 157.22 93.87 139.51 154.45 138.71 154.45"/><polygon class="aa" points="137.91 154.45 157.22 88.39 157.22 91.13 138.71 154.45 137.91 154.45"/><polygon class="ab" points="137.11 154.45 157.22 85.65 157.22 88.39 137.91 154.45 137.11 154.45"/><polygon class="ac" points="136.31 154.45 157.22 82.91 157.22 85.65 137.11 154.45 136.31 154.45"/><polygon class="ad" points="135.51 154.45 157.22 80.17 157.22 82.91 136.31 154.45 135.51 154.45"/><polygon class="ae" points="134.71 154.45 157.22 77.43 157.22 80.17 135.51 154.45 134.71 154.45"/><polygon class="af" points="133.91 154.45 157.22 74.69 157.22 77.43 134.71 154.45 133.91 154.45"/><polygon class="ag" points="133.1 154.45 157.22 71.95 157.22 74.69 133.91 154.45 133.1 154.45"/><polygon class="ah" points="132.3 154.45 157.22 69.21 157.22 71.95 133.1 154.45 132.3 154.45"/><polygon class="ai" points="131.5 154.45 157.22 66.47 157.22 69.21 132.3 154.45 131.5 154.45"/><polygon class="aj" points="130.7 154.45 157.22 63.73 157.22 66.47 131.5 154.45 130.7 154.45"/><polygon class="ak" points="129.9 154.45 157.22 60.98 157.22 63.73 130.7 154.45 129.9 154.45"/><polygon class="al" points="129.1 154.45 157.22 58.24 157.22 60.98 129.9 154.45 129.1 154.45"/><polygon class="am" points="128.3 154.45 157.22 55.5 157.22 58.24 129.1 154.45 128.3 154.45"/><polygon class="an" points="127.5 154.45 157.22 52.76 157.22 55.5 128.3 154.45 127.5 154.45"/><polygon class="ao" points="126.7 154.45 157.22 50.02 157.22 52.76 127.5 154.45 126.7 154.45"/><polygon class="ap" points="125.89 154.45 157.22 47.28 157.22 50.02 126.7 154.45 125.89 154.45"/><polygon class="aq" points="125.09 154.45 157.22 44.54 157.22 47.28 125.89 154.45 125.09 154.45"/><polygon class="ar" points="124.29 154.45 157.22 41.8 157.22 44.54 125.09 154.45 124.29 154.45"/><polygon class="ar" points="123.49 154.45 157.22 39.06 157.22 41.8 124.29 154.45 123.49 154.45"/><polygon class="as" points="122.69 154.45 157.22 36.32 157.22 39.06 123.49 154.45 122.69 154.45"/><polygon class="at" points="121.89 154.45 157.22 33.58 157.22 36.32 122.69 154.45 121.89 154.45"/><polygon class="au" points="121.09 154.45 157.03 31.48 157.22 31.54 157.22 33.58 121.89 154.45 121.09 154.45"/><polygon class="av" points="120.29 154.45 156.29 31.27 157.03 31.48 121.09 154.45 120.29 154.45"/><polygon class="aw" points="119.49 154.45 155.56 31.05 156.29 31.27 120.29 154.45 119.49 154.45"/><polygon class="ax" points="118.69 154.45 154.82 30.84 155.56 31.05 119.49 154.45 118.69 154.45"/><polygon class="ay" points="117.88 154.45 154.08 30.62 154.82 30.84 118.69 154.45 117.88 154.45"/><polygon class="az" points="117.08 154.45 153.34 30.4 154.08 30.62 117.88 154.45 117.08 154.45"/><polygon class="ba" points="116.28 154.45 152.6 30.19 153.34 30.4 117.08 154.45 116.28 154.45"/><polygon class="bb" points="115.48 154.45 151.87 29.97 152.6 30.19 116.28 154.45 115.48 154.45"/><polygon class="bc" points="114.68 154.45 151.13 29.76 151.87 29.97 115.48 154.45 114.68 154.45"/><polygon class="bd" points="113.88 154.45 150.39 29.54 151.13 29.76 114.68 154.45 113.88 154.45"/><polygon class="be" points="113.08 154.45 149.65 29.32 150.39 29.54 113.88 154.45 113.08 154.45"/><polygon class="bf" points="112.28 154.45 148.91 29.11 149.65 29.32 113.08 154.45 112.28 154.45"/><polygon class="bg" points="111.47 154.45 148.18 28.89 148.91 29.11 112.28 154.45 111.47 154.45"/><polygon class="bh" points="110.67 154.45 147.44 28.68 148.18 28.89 111.47 154.45 110.67 154.45"/><polygon class="bh" points="109.87 154.45 146.7 28.46 147.44 28.68 110.67 154.45 109.87 154.45"/><polygon class="bi" points="109.07 154.45 145.96 28.25 146.7 28.46 109.87 154.45 109.07 154.45"/><polygon class="bi" points="108.27 154.45 145.22 28.03 145.96 28.25 109.07 154.45 108.27 154.45"/><polygon class="bj" points="107.47 154.45 144.49 27.81 145.22 28.03 108.27 154.45 107.47 154.45"/><polygon class="bk" points="106.67 154.45 143.75 27.6 144.49 27.81 107.47 154.45 106.67 154.45"/><polygon class="bl" points="105.87 154.45 143.01 27.38 143.75 27.6 106.67 154.45 105.87 154.45"/><polygon class="bm" points="105.07 154.45 142.27 27.17 143.01 27.38 105.87 154.45 105.07 154.45"/><polygon class="bn" points="104.27 154.45 141.53 26.95 142.27 27.17 105.07 154.45 104.27 154.45"/><polygon class="bo" points="103.46 154.45 140.8 26.74 141.53 26.95 104.27 154.45 103.46 154.45"/><polygon class="bp" points="102.66 154.45 140.06 26.52 140.8 26.74 103.46 154.45 102.66 154.45"/><polygon class="bp" points="101.86 154.45 139.32 26.3 140.06 26.52 102.66 154.45 101.86 154.45"/><polygon class="bq" points="101.06 154.45 138.58 26.09 139.32 26.3 101.86 154.45 101.06 154.45"/><polygon class="br" points="100.26 154.45 137.84 25.87 138.58 26.09 101.06 154.45 100.26 154.45"/><polygon class="bs" points="99.46 154.45 137.11 25.66 137.84 25.87 100.26 154.45 99.46 154.45"/><polygon class="bs" points="98.66 154.45 136.37 25.44 137.11 25.66 99.46 154.45 98.66 154.45"/><polygon class="bt" points="97.86 154.45 135.63 25.23 136.37 25.44 98.66 154.45 97.86 154.45"/><polygon class="bu" points="97.06 154.45 134.89 25.01 135.63 25.23 97.86 154.45 97.06 154.45"/><polygon class="bv" points="96.25 154.45 134.16 24.79 134.89 25.01 97.06 154.45 96.25 154.45"/><polygon class="bv" points="95.45 154.45 133.42 24.58 134.16 24.79 96.25 154.45 95.45 154.45"/><polygon class="bw" points="94.65 154.45 132.66 24.42 132.88 24.42 133.42 24.58 95.45 154.45 94.65 154.45"/><polygon class="bw" points="93.85 154.45 131.86 24.42 132.66 24.42 94.65 154.45 93.85 154.45"/><polygon class="bx" points="93.05 154.45 131.06 24.42 131.86 24.42 93.85 154.45 93.05 154.45"/><polygon class="bx" points="92.25 154.45 130.26 24.42 131.06 24.42 93.05 154.45 92.25 154.45"/><polygon class="bx" points="91.45 154.45 129.46 24.42 130.26 24.42 92.25 154.45 91.45 154.45"/><polygon class="bx" points="90.65 154.45 128.66 24.42 129.46 24.42 91.45 154.45 90.65 154.45"/><polygon class="bx" points="89.85 154.45 127.85 24.42 128.66 24.42 90.65 154.45 89.85 154.45"/><polygon class="bx" points="89.05 154.45 127.05 24.42 127.85 24.42 89.85 154.45 89.05 154.45"/><polygon class="bx" points="88.24 154.45 126.25 24.42 127.05 24.42 89.05 154.45 88.24 154.45"/><polygon class="bx" points="49 154.45 24.66 147.34 24.66 24.42 126.25 24.42 88.24 154.45 49 154.45"/><polygon class="by" points="153.62 174.7 177.9 91.65 177.9 174.7 153.62 174.7"/><polygon class="by" points="152.82 174.7 177.9 88.91 177.9 91.65 153.62 174.7 152.82 174.7"/><polygon class="bz" points="152.02 174.7 177.9 86.17 177.9 88.91 152.82 174.7 152.02 174.7"/><polygon class="c" points="151.22 174.7 177.9 83.43 177.9 86.17 152.02 174.7 151.22 174.7"/><polygon class="d" points="150.42 174.7 177.9 80.69 177.9 83.43 151.22 174.7 150.42 174.7"/><polygon class="e" points="149.62 174.7 177.9 77.95 177.9 80.69 150.42 174.7 149.62 174.7"/><polygon class="f" points="148.82 174.7 177.9 75.21 177.9 77.95 149.62 174.7 148.82 174.7"/><polygon class="g" points="148.01 174.7 177.9 72.47 177.9 75.21 148.82 174.7 148.01 174.7"/><polygon class="h" points="147.21 174.7 177.9 69.73 177.9 72.47 148.01 174.7 147.21 174.7"/><polygon class="i" points="146.41 174.7 177.9 66.99 177.9 69.73 147.21 174.7 146.41 174.7"/><polygon class="j" points="145.61 174.7 177.9 64.25 177.9 66.99 146.41 174.7 145.61 174.7"/><polygon class="k" points="144.81 174.7 177.9 61.51 177.9 64.25 145.61 174.7 144.81 174.7"/><polygon class="l" points="144.01 174.7 177.9 58.77 177.9 61.51 144.81 174.7 144.01 174.7"/><polygon class="m" points="143.21 174.7 177.9 56.02 177.9 58.77 144.01 174.7 143.21 174.7"/><polygon class="n" points="142.41 174.7 177.9 53.28 177.9 56.02 143.21 174.7 142.41 174.7"/><polygon class="o" points="141.61 174.7 177.9 50.54 177.9 53.28 142.41 174.7 141.61 174.7"/><polygon class="p" points="140.81 174.7 177.9 47.8 177.9 50.54 141.61 174.7 140.81 174.7"/><polygon class="q" points="140 174.7 177.9 45.06 177.9 47.8 140.81 174.7 140 174.7"/><polygon class="r" points="139.2 174.7 177.9 42.32 177.9 45.06 140 174.7 139.2 174.7"/><polygon class="s" points="138.4 174.7 177.9 39.58 177.9 42.32 139.2 174.7 138.4 174.7"/><polygon class="t" points="137.6 174.7 177.9 36.84 177.9 39.58 138.4 174.7 137.6 174.7"/><polygon class="u" points="136.8 174.7 177.9 34.1 177.9 36.84 137.6 174.7 136.8 174.7"/><polygon class="v" points="136 174.7 177.9 31.36 177.9 34.1 136.8 174.7 136 174.7"/><polygon class="w" points="135.2 174.7 177.25 30.84 177.9 31.04 177.9 31.36 136 174.7 135.2 174.7"/><polygon class="x" points="134.4 174.7 176.51 30.63 177.25 30.84 135.2 174.7 134.4 174.7"/><polygon class="y" points="133.6 174.7 175.77 30.41 176.51 30.63 134.4 174.7 133.6 174.7"/><polygon class="z" points="132.79 174.7 175.03 30.2 175.77 30.41 133.6 174.7 132.79 174.7"/><polygon class="aa" points="131.99 174.7 174.29 29.98 175.03 30.2 132.79 174.7 131.99 174.7"/><polygon class="ab" points="131.19 174.7 173.56 29.77 174.29 29.98 131.99 174.7 131.19 174.7"/><polygon class="ac" points="130.39 174.7 172.82 29.55 173.56 29.77 131.19 174.7 130.39 174.7"/><polygon class="ad" points="129.59 174.7 172.08 29.34 172.82 29.55 130.39 174.7 129.59 174.7"/><polygon class="ae" points="128.79 174.7 171.34 29.12 172.08 29.34 129.59 174.7 128.79 174.7"/><polygon class="af" points="127.99 174.7 170.6 28.9 171.34 29.12 128.79 174.7 127.99 174.7"/><polygon class="ag" points="127.19 174.7 169.87 28.69 170.6 28.9 127.99 174.7 127.19 174.7"/><polygon class="ah" points="126.39 174.7 169.13 28.47 169.87 28.69 127.19 174.7 126.39 174.7"/><polygon class="ai" points="125.58 174.7 168.39 28.26 169.13 28.47 126.39 174.7 125.58 174.7"/><polygon class="aj" points="124.78 174.7 167.65 28.04 168.39 28.26 125.58 174.7 124.78 174.7"/><polygon class="ak" points="123.98 174.7 166.91 27.82 167.65 28.04 124.78 174.7 123.98 174.7"/><polygon class="al" points="123.18 174.7 166.18 27.61 166.91 27.82 123.98 174.7 123.18 174.7"/><polygon class="am" points="122.38 174.7 165.44 27.39 166.18 27.61 123.18 174.7 122.38 174.7"/><polygon class="an" points="121.58 174.7 164.7 27.18 165.44 27.39 122.38 174.7 121.58 174.7"/><polygon class="ao" points="120.78 174.7 163.96 26.96 164.7 27.18 121.58 174.7 120.78 174.7"/><polygon class="ap" points="119.98 174.7 163.22 26.75 163.96 26.96 120.78 174.7 119.98 174.7"/><polygon class="aq" points="119.18 174.7 162.49 26.53 163.22 26.75 119.98 174.7 119.18 174.7"/><polygon class="ar" points="118.38 174.7 161.75 26.32 162.49 26.53 119.18 174.7 118.38 174.7"/><polygon class="ar" points="117.57 174.7 161.01 26.1 161.75 26.32 118.38 174.7 117.57 174.7"/><polygon class="as" points="116.77 174.7 160.27 25.88 161.01 26.1 117.57 174.7 116.77 174.7"/><polygon class="at" points="115.97 174.7 159.53 25.67 160.27 25.88 116.77 174.7 115.97 174.7"/><polygon class="au" points="115.17 174.7 158.8 25.45 159.53 25.67 115.97 174.7 115.17 174.7"/><polygon class="av" points="114.37 174.7 158.06 25.24 158.8 25.45 115.17 174.7 114.37 174.7"/><polygon class="aw" points="113.57 174.7 157.32 25.02 158.06 25.24 114.37 174.7 113.57 174.7"/><polygon class="ax" points="112.77 174.7 156.58 24.8 157.32 25.02 113.57 174.7 112.77 174.7"/><polygon class="ay" points="111.97 174.7 155.84 24.59 156.58 24.8 112.77 174.7 111.97 174.7"/><polygon class="az" points="111.17 174.7 155.11 24.37 155.84 24.59 111.97 174.7 111.17 174.7"/><polygon class="ba" points="110.36 174.7 154.37 24.16 155.11 24.37 111.17 174.7 110.36 174.7"/><polygon class="bb" points="109.56 174.7 153.63 23.94 154.37 24.16 110.36 174.7 109.56 174.7"/><polygon class="bc" points="108.76 174.7 152.89 23.73 153.63 23.94 109.56 174.7 108.76 174.7"/><polygon class="bd" points="107.96 174.7 152.15 23.51 152.89 23.73 108.76 174.7 107.96 174.7"/><polygon class="be" points="107.16 174.7 151.42 23.3 152.15 23.51 107.96 174.7 107.16 174.7"/><polygon class="bf" points="106.36 174.7 150.68 23.08 151.42 23.3 107.16 174.7 106.36 174.7"/><polygon class="bg" points="105.56 174.7 149.94 22.86 150.68 23.08 106.36 174.7 105.56 174.7"/><polygon class="bh" points="104.76 174.7 149.2 22.65 149.94 22.86 105.56 174.7 104.76 174.7"/><polygon class="bh" points="103.96 174.7 148.46 22.43 149.2 22.65 104.76 174.7 103.96 174.7"/><polygon class="bi" points="103.16 174.7 147.72 22.22 148.46 22.43 103.96 174.7 103.16 174.7"/><polygon class="bi" points="102.35 174.7 146.99 22 147.72 22.22 103.16 174.7 102.35 174.7"/><polygon class="bj" points="101.55 174.7 146.25 21.79 146.99 22 102.35 174.7 101.55 174.7"/><polygon class="bk" points="100.75 174.7 145.51 21.57 146.25 21.79 101.55 174.7 100.75 174.7"/><polygon class="bl" points="99.95 174.7 144.77 21.35 145.51 21.57 100.75 174.7 99.95 174.7"/><polygon class="bm" points="99.15 174.7 144.03 21.14 144.77 21.35 99.95 174.7 99.15 174.7"/><polygon class="bn" points="98.35 174.7 143.3 20.92 144.03 21.14 99.15 174.7 98.35 174.7"/><polygon class="bo" points="97.55 174.7 142.54 20.78 142.8 20.78 143.3 20.92 98.35 174.7 97.55 174.7"/><polygon class="bp" points="96.75 174.7 141.74 20.78 142.54 20.78 97.55 174.7 96.75 174.7"/><polygon class="bp" points="95.94 174.7 140.94 20.78 141.74 20.78 96.75 174.7 95.94 174.7"/><polygon class="bq" points="95.14 174.7 140.13 20.78 140.94 20.78 95.94 174.7 95.14 174.7"/><polygon class="br" points="94.34 174.7 139.33 20.78 140.13 20.78 95.14 174.7 94.34 174.7"/><polygon class="bs" points="93.54 174.7 138.53 20.78 139.33 20.78 94.34 174.7 93.54 174.7"/><polygon class="bs" points="92.74 174.7 137.73 20.78 138.53 20.78 93.54 174.7 92.74 174.7"/><polygon class="bt" points="91.94 174.7 136.93 20.78 137.73 20.78 92.74 174.7 91.94 174.7"/><polygon class="bu" points="91.14 174.7 136.13 20.78 136.93 20.78 91.94 174.7 91.14 174.7"/><polygon class="bv" points="90.34 174.7 135.33 20.78 136.13 20.78 91.14 174.7 90.34 174.7"/><polygon class="bv" points="89.54 174.7 134.53 20.78 135.33 20.78 90.34 174.7 89.54 174.7"/><polygon class="bw" points="88.73 174.7 133.73 20.78 134.53 20.78 89.54 174.7 88.73 174.7"/><polygon class="bw" points="87.93 174.7 132.93 20.78 133.73 20.78 88.73 174.7 87.93 174.7"/><polygon class="bx" points="87.13 174.7 132.13 20.78 132.93 20.78 87.93 174.7 87.13 174.7"/><polygon class="bx" points="86.33 174.7 131.32 20.78 132.13 20.78 87.13 174.7 86.33 174.7"/><polygon class="bx" points="85.53 174.7 130.52 20.78 131.32 20.78 86.33 174.7 85.53 174.7"/><polygon class="bx" points="84.73 174.7 129.72 20.78 130.52 20.78 85.53 174.7 84.73 174.7"/><polygon class="bx" points="83.93 174.7 128.92 20.78 129.72 20.78 84.73 174.7 83.93 174.7"/><polygon class="bx" points="83.13 174.7 128.12 20.78 128.92 20.78 83.93 174.7 83.13 174.7"/><polygon class="bx" points="82.33 174.7 127.32 20.78 128.12 20.78 83.13 174.7 82.33 174.7"/><polygon class="bx" points="55.68 174.7 20.58 164.44 20.58 20.78 127.32 20.78 82.33 174.7 55.68 174.7"/></g><g class="ca"><polygon class="by" points="153.72 174.37 161.7 147.06 161.7 174.37 153.72 174.37"/><polygon class="by" points="152.92 174.37 161.7 144.32 161.7 147.06 153.72 174.37 152.92 174.37"/><polygon class="bz" points="152.12 174.37 161.7 141.58 161.7 144.32 152.92 174.37 152.12 174.37"/><polygon class="c" points="151.31 174.37 161.7 138.84 161.7 141.58 152.12 174.37 151.31 174.37"/><polygon class="d" points="150.51 174.37 161.7 136.1 161.7 138.84 151.31 174.37 150.51 174.37"/><polygon class="e" points="149.71 174.37 161.7 133.36 161.7 136.1 150.51 174.37 149.71 174.37"/><polygon class="f" points="148.91 174.37 161.7 130.62 161.7 133.36 149.71 174.37 148.91 174.37"/><polygon class="g" points="148.11 174.37 161.7 127.88 161.7 130.62 148.91 174.37 148.11 174.37"/><polygon class="h" points="147.31 174.37 161.7 125.13 161.7 127.88 148.11 174.37 147.31 174.37"/><polygon class="i" points="146.51 174.37 161.7 122.39 161.7 125.13 147.31 174.37 146.51 174.37"/><polygon class="j" points="145.71 174.37 161.7 119.65 161.7 122.39 146.51 174.37 145.71 174.37"/><polygon class="k" points="144.91 174.37 161.7 116.91 161.7 119.65 145.71 174.37 144.91 174.37"/><polygon class="l" points="144.1 174.37 161.7 114.17 161.7 116.91 144.91 174.37 144.1 174.37"/><polygon class="m" points="143.3 174.37 161.7 111.43 161.7 114.17 144.1 174.37 143.3 174.37"/><polygon class="n" points="142.5 174.37 161.7 108.69 161.7 111.43 143.3 174.37 142.5 174.37"/><polygon class="o" points="141.7 174.37 161.7 105.95 161.7 108.69 142.5 174.37 141.7 174.37"/><polygon class="p" points="140.9 174.37 161.7 103.21 161.7 105.95 141.7 174.37 140.9 174.37"/><polygon class="q" points="140.1 174.37 161.7 100.47 161.7 103.21 140.9 174.37 140.1 174.37"/><polygon class="r" points="139.3 174.37 161.7 97.73 161.7 100.47 140.1 174.37 139.3 174.37"/><polygon class="s" points="138.5 174.37 161.7 94.99 161.7 97.73 139.3 174.37 138.5 174.37"/><polygon class="t" points="137.7 174.37 161.7 92.25 161.7 94.99 138.5 174.37 137.7 174.37"/><polygon class="u" points="136.9 174.37 161.7 89.51 161.7 92.25 137.7 174.37 136.9 174.37"/><polygon class="v" points="136.09 174.37 161.7 86.77 161.7 89.51 136.9 174.37 136.09 174.37"/><polygon class="w" points="135.29 174.37 161.7 84.03 161.7 86.77 136.09 174.37 135.29 174.37"/><polygon class="x" points="134.49 174.37 161.7 81.28 161.7 84.03 135.29 174.37 134.49 174.37"/><polygon class="y" points="133.69 174.37 161.7 78.55 161.7 81.28 134.49 174.37 133.69 174.37"/><polygon class="z" points="132.89 174.37 161.7 75.8 161.7 78.55 133.69 174.37 132.89 174.37"/><polygon class="aa" points="132.09 174.37 161.7 73.06 161.7 75.8 132.89 174.37 132.09 174.37"/><polygon class="ab" points="131.29 174.37 161.7 70.32 161.7 73.06 132.09 174.37 131.29 174.37"/><polygon class="ac" points="130.49 174.37 161.7 67.58 161.7 70.32 131.29 174.37 130.49 174.37"/><polygon class="ad" points="129.69 174.37 161.15 66.74 161.7 66.91 161.7 67.58 130.49 174.37 129.69 174.37"/><polygon class="ae" points="128.88 174.37 160.41 66.53 161.15 66.74 129.69 174.37 128.88 174.37"/><polygon class="af" points="128.08 174.37 159.67 66.31 160.41 66.53 128.88 174.37 128.08 174.37"/><polygon class="ag" points="127.28 174.37 158.93 66.1 159.67 66.31 128.08 174.37 127.28 174.37"/><polygon class="ah" points="126.48 174.37 158.19 65.88 158.93 66.1 127.28 174.37 126.48 174.37"/><polygon class="ai" points="125.68 174.37 157.46 65.67 158.19 65.88 126.48 174.37 125.68 174.37"/><polygon class="aj" points="124.88 174.37 156.72 65.45 157.46 65.67 125.68 174.37 124.88 174.37"/><polygon class="ak" points="124.08 174.37 155.98 65.23 156.72 65.45 124.88 174.37 124.08 174.37"/><polygon class="al" points="123.28 174.37 155.24 65.02 155.98 65.23 124.08 174.37 123.28 174.37"/><polygon class="am" points="122.48 174.37 154.5 64.8 155.24 65.02 123.28 174.37 122.48 174.37"/><polygon class="an" points="121.67 174.37 153.76 64.59 154.5 64.8 122.48 174.37 121.67 174.37"/><polygon class="ao" points="120.87 174.37 153.03 64.37 153.76 64.59 121.67 174.37 120.87 174.37"/><polygon class="ap" points="120.07 174.37 152.29 64.15 153.03 64.37 120.87 174.37 120.07 174.37"/><polygon class="aq" points="119.27 174.37 151.55 63.94 152.29 64.15 120.07 174.37 119.27 174.37"/><polygon class="ar" points="118.47 174.37 150.81 63.72 151.55 63.94 119.27 174.37 118.47 174.37"/><polygon class="ar" points="117.67 174.37 150.07 63.51 150.81 63.72 118.47 174.37 117.67 174.37"/><polygon class="as" points="116.87 174.37 149.34 63.29 150.07 63.51 117.67 174.37 116.87 174.37"/><polygon class="at" points="116.07 174.37 148.6 63.08 149.34 63.29 116.87 174.37 116.07 174.37"/><polygon class="au" points="115.27 174.37 147.86 62.86 148.6 63.08 116.07 174.37 115.27 174.37"/><polygon class="av" points="114.47 174.37 147.12 62.64 147.86 62.86 115.27 174.37 114.47 174.37"/><polygon class="aw" points="113.66 174.37 146.38 62.43 147.12 62.64 114.47 174.37 113.66 174.37"/><polygon class="ax" points="113.39 174.37 112.91 174.23 145.65 62.21 146.38 62.43 113.66 174.37 113.39 174.37"/><rect class="ay" x="70.56" y="117.73" width="116.7" height="0.77" transform="matrix(0.28, -0.96, 0.96, 0.28, -20.63, 208.7)"/><rect class="az" x="69.82" y="117.51" width="116.7" height="0.77" transform="matrix(0.28, -0.96, 0.96, 0.28, -20.95, 207.84)"/><rect class="ba" x="69.08" y="117.3" width="116.7" height="0.77" transform="translate(-21.28 206.98) rotate(-73.71)"/><rect class="bb" x="68.34" y="117.08" width="116.7" height="0.77" transform="matrix(0.28, -0.96, 0.96, 0.28, -21.6, 206.11)"/><rect class="bc" x="67.6" y="116.86" width="116.7" height="0.77" transform="matrix(0.28, -0.96, 0.96, 0.28, -21.92, 205.25)"/><rect class="bd" x="66.87" y="116.65" width="116.7" height="0.77" transform="matrix(0.28, -0.96, 0.96, 0.28, -22.25, 204.38)"/><rect class="be" x="66.13" y="116.43" width="116.7" height="0.77" transform="matrix(0.28, -0.96, 0.96, 0.28, -22.57, 203.52)"/><rect class="bf" x="65.39" y="116.22" width="116.7" height="0.77" transform="translate(-22.9 202.66) rotate(-73.71)"/><rect class="bg" x="64.65" y="116" width="116.7" height="0.77" transform="matrix(0.28, -0.96, 0.96, 0.28, -23.22, 201.79)"/><rect class="bh" x="63.91" y="115.79" width="116.7" height="0.77" transform="matrix(0.28, -0.96, 0.96, 0.28, -23.54, 200.93)"/><rect class="bh" x="63.18" y="115.57" width="116.7" height="0.77" transform="matrix(0.28, -0.96, 0.96, 0.28, -23.87, 200.07)"/><rect class="bi" x="62.44" y="115.35" width="116.7" height="0.77" transform="translate(-24.19 199.2) rotate(-73.71)"/><rect class="bi" x="61.7" y="115.14" width="116.7" height="0.77" transform="matrix(0.28, -0.96, 0.96, 0.28, -24.51, 198.34)"/><rect class="bj" x="60.96" y="114.92" width="116.7" height="0.77" transform="matrix(0.28, -0.96, 0.96, 0.28, -24.84, 197.48)"/><rect class="bk" x="60.22" y="114.71" width="116.7" height="0.77" transform="matrix(0.28, -0.96, 0.96, 0.28, -25.16, 196.61)"/><rect class="bl" x="59.49" y="114.49" width="116.7" height="0.77" transform="translate(-25.49 195.75) rotate(-73.71)"/><rect class="bm" x="58.75" y="114.28" width="116.7" height="0.77" transform="matrix(0.28, -0.96, 0.96, 0.28, -25.81, 194.89)"/><rect class="bn" x="58.01" y="114.06" width="116.7" height="0.77" transform="matrix(0.28, -0.96, 0.96, 0.28, -26.13, 194.02)"/><rect class="bo" x="57.27" y="113.84" width="116.7" height="0.77" transform="matrix(0.28, -0.96, 0.96, 0.28, -26.46, 193.16)"/><rect class="bp" x="56.53" y="113.63" width="116.7" height="0.77" transform="matrix(0.28, -0.96, 0.96, 0.28, -26.78, 192.29)"/><rect class="bp" x="55.8" y="113.41" width="116.7" height="0.77" transform="translate(-27.11 191.43) rotate(-73.71)"/><rect class="bq" x="55.06" y="113.2" width="116.7" height="0.77" transform="matrix(0.28, -0.96, 0.96, 0.28, -27.43, 190.57)"/><rect class="br" x="54.32" y="112.98" width="116.7" height="0.77" transform="matrix(0.28, -0.96, 0.96, 0.28, -27.75, 189.7)"/><rect class="bs" x="53.58" y="112.77" width="116.7" height="0.77" transform="matrix(0.28, -0.96, 0.96, 0.28, -28.08, 188.84)"/><rect class="bs" x="52.84" y="112.55" width="116.7" height="0.77" transform="translate(-28.4 187.98) rotate(-73.71)"/><rect class="bt" x="52.11" y="112.33" width="116.7" height="0.77" transform="matrix(0.28, -0.96, 0.96, 0.28, -28.73, 187.11)"/><rect class="bu" x="51.37" y="112.12" width="116.7" height="0.77" transform="matrix(0.28, -0.96, 0.96, 0.28, -29.05, 186.25)"/><rect class="bv" x="50.63" y="111.9" width="116.7" height="0.77" transform="matrix(0.28, -0.96, 0.96, 0.28, -29.37, 185.39)"/><rect class="bv" x="49.89" y="111.69" width="116.7" height="0.77" transform="translate(-29.7 184.52) rotate(-73.71)"/><rect class="bw" x="49.15" y="111.47" width="116.7" height="0.77" transform="matrix(0.28, -0.96, 0.96, 0.28, -30.02, 183.66)"/><rect class="bw" x="48.42" y="111.26" width="116.7" height="0.77" transform="matrix(0.28, -0.96, 0.96, 0.28, -30.34, 182.8)"/><rect class="bx" x="47.68" y="111.04" width="116.7" height="0.77" transform="matrix(0.28, -0.96, 0.96, 0.28, -30.67, 181.93)"/><rect class="bx" x="46.94" y="110.82" width="116.7" height="0.77" transform="matrix(0.28, -0.96, 0.96, 0.28, -30.99, 181.07)"/><rect class="bx" x="46.2" y="110.61" width="116.7" height="0.77" transform="translate(-31.32 180.2) rotate(-73.71)"/><rect class="bx" x="45.46" y="110.39" width="116.7" height="0.77" transform="matrix(0.28, -0.96, 0.96, 0.28, -31.64, 179.34)"/><rect class="bx" x="44.73" y="110.18" width="116.7" height="0.77" transform="matrix(0.28, -0.96, 0.96, 0.28, -31.96, 178.48)"/><rect class="bx" x="43.99" y="109.96" width="116.7" height="0.77" transform="matrix(0.28, -0.96, 0.96, 0.28, -32.29, 177.61)"/><rect class="bx" x="43.25" y="109.75" width="116.7" height="0.77" transform="translate(-32.61 176.75) rotate(-73.71)"/><polygon class="bx" points="84.86 166.03 29.15 149.75 29.15 44.41 84.76 44.41 117.6 54.02 84.86 166.03"/><polygon class="by" points="152.63 178.09 181.68 78.71 181.68 178.09 152.63 178.09"/><polygon class="by" points="151.83 178.09 181.68 75.97 181.68 78.71 152.63 178.09 151.83 178.09"/><polygon class="bz" points="151.03 178.09 181.68 73.23 181.68 75.97 151.83 178.09 151.03 178.09"/><polygon class="c" points="150.23 178.09 181.68 70.49 181.68 73.23 151.03 178.09 150.23 178.09"/><polygon class="d" points="149.43 178.09 181.68 67.75 181.68 70.49 150.23 178.09 149.43 178.09"/><polygon class="e" points="148.63 178.09 181.68 65.01 181.68 67.75 149.43 178.09 148.63 178.09"/><polygon class="f" points="147.82 178.09 181.68 62.27 181.68 65.01 148.63 178.09 147.82 178.09"/><polygon class="g" points="147.02 178.09 181.68 59.53 181.68 62.27 147.82 178.09 147.02 178.09"/><polygon class="h" points="146.22 178.09 181.68 56.79 181.68 59.53 147.02 178.09 146.22 178.09"/><polygon class="i" points="145.42 178.09 181.68 54.05 181.68 56.79 146.22 178.09 145.42 178.09"/><polygon class="j" points="144.62 178.09 181.68 51.31 181.68 54.05 145.42 178.09 144.62 178.09"/><polygon class="k" points="143.82 178.09 181.68 48.57 181.68 51.31 144.62 178.09 143.82 178.09"/><polygon class="l" points="143.02 178.09 181.68 45.83 181.68 45.83 181.68 48.57 143.82 178.09 143.02 178.09"/><polygon class="m" points="142.22 178.09 180.94 45.62 181.68 45.83 143.02 178.09 142.22 178.09"/><polygon class="n" points="141.42 178.09 180.2 45.4 180.94 45.62 142.22 178.09 141.42 178.09"/><polygon class="o" points="140.62 178.09 179.46 45.18 180.2 45.4 141.42 178.09 140.62 178.09"/><polygon class="p" points="139.81 178.09 178.73 44.97 179.46 45.18 140.62 178.09 139.81 178.09"/><polygon class="q" points="139.01 178.09 177.99 44.75 178.73 44.97 139.81 178.09 139.01 178.09"/><polygon class="r" points="138.21 178.09 177.25 44.54 177.99 44.75 139.01 178.09 138.21 178.09"/><polygon class="s" points="137.41 178.09 176.51 44.32 177.25 44.54 138.21 178.09 137.41 178.09"/><polygon class="t" points="136.61 178.09 175.77 44.1 176.51 44.32 137.41 178.09 136.61 178.09"/><polygon class="u" points="135.81 178.09 175.04 43.89 175.77 44.1 136.61 178.09 135.81 178.09"/><polygon class="v" points="135.01 178.09 174.3 43.67 175.04 43.89 135.81 178.09 135.01 178.09"/><polygon class="w" points="134.21 178.09 173.56 43.46 174.3 43.67 135.01 178.09 134.21 178.09"/><polygon class="x" points="133.41 178.09 172.82 43.24 173.56 43.46 134.21 178.09 133.41 178.09"/><polygon class="y" points="132.6 178.09 172.08 43.03 172.82 43.24 133.41 178.09 132.6 178.09"/><polygon class="z" points="131.8 178.09 171.35 42.81 172.08 43.03 132.6 178.09 131.8 178.09"/><polygon class="aa" points="131 178.09 170.61 42.59 171.35 42.81 131.8 178.09 131 178.09"/><polygon class="ab" points="130.2 178.09 169.87 42.38 170.61 42.59 131 178.09 130.2 178.09"/><polygon class="ac" points="129.4 178.09 169.13 42.16 169.87 42.38 130.2 178.09 129.4 178.09"/><polygon class="ad" points="128.6 178.09 168.39 41.95 169.13 42.16 129.4 178.09 128.6 178.09"/><polygon class="ae" points="127.8 178.09 167.66 41.73 168.39 41.95 128.6 178.09 127.8 178.09"/><polygon class="af" points="127 178.09 166.92 41.52 167.66 41.73 127.8 178.09 127 178.09"/><polygon class="ag" points="126.19 178.09 166.18 41.3 166.92 41.52 127 178.09 126.19 178.09"/><polygon class="ah" points="125.39 178.09 165.44 41.09 166.18 41.3 126.19 178.09 125.39 178.09"/><polygon class="ai" points="124.59 178.09 164.7 40.87 165.44 41.09 125.39 178.09 124.59 178.09"/><polygon class="aj" points="123.79 178.09 163.97 40.65 164.7 40.87 124.59 178.09 123.79 178.09"/><polygon class="ak" points="122.99 178.09 163.23 40.44 163.97 40.65 123.79 178.09 122.99 178.09"/><polygon class="al" points="122.19 178.09 162.49 40.22 163.23 40.44 122.99 178.09 122.19 178.09"/><polygon class="am" points="121.39 178.09 161.75 40.01 162.49 40.22 122.19 178.09 121.39 178.09"/><polygon class="an" points="120.59 178.09 161.01 39.79 161.75 40.01 121.39 178.09 120.59 178.09"/><polygon class="ao" points="119.79 178.09 160.28 39.58 161.01 39.79 120.59 178.09 119.79 178.09"/><polygon class="ap" points="118.98 178.09 159.54 39.36 160.28 39.58 119.79 178.09 118.98 178.09"/><polygon class="aq" points="118.18 178.09 158.8 39.14 159.54 39.36 118.98 178.09 118.18 178.09"/><polygon class="ar" points="117.38 178.09 158.06 38.93 158.8 39.14 118.18 178.09 117.38 178.09"/><polygon class="ar" points="116.58 178.09 157.32 38.71 158.06 38.93 117.38 178.09 116.58 178.09"/><polygon class="as" points="115.78 178.09 156.59 38.5 157.32 38.71 116.58 178.09 115.78 178.09"/><polygon class="at" points="114.98 178.09 155.85 38.28 156.59 38.5 115.78 178.09 114.98 178.09"/><polygon class="au" points="114.18 178.09 155.11 38.06 155.85 38.28 114.98 178.09 114.18 178.09"/><polygon class="av" points="113.38 178.09 154.37 37.85 155.11 38.06 114.18 178.09 113.38 178.09"/><polygon class="aw" points="112.58 178.09 153.63 37.63 154.37 37.85 113.38 178.09 112.58 178.09"/><polygon class="ax" points="111.78 178.09 152.9 37.42 153.63 37.63 112.58 178.09 111.78 178.09"/><polygon class="ay" points="110.97 178.09 152.16 37.2 152.9 37.42 111.78 178.09 110.97 178.09"/><polygon class="az" points="110.17 178.09 151.42 36.99 152.16 37.2 110.97 178.09 110.17 178.09"/><polygon class="ba" points="109.39 178.09 109.37 178.09 150.68 36.77 151.42 36.99 110.17 178.09 109.39 178.09"/><rect class="bb" x="56.04" y="106.94" width="147.23" height="0.77" transform="translate(-9.73 201.66) rotate(-73.71)"/><rect class="bc" x="55.31" y="106.72" width="147.23" height="0.77" transform="matrix(0.28, -0.96, 0.96, 0.28, -10.05, 200.8)"/><rect class="bd" x="54.57" y="106.5" width="147.23" height="0.77" transform="matrix(0.28, -0.96, 0.96, 0.28, -10.38, 199.93)"/><rect class="be" x="53.83" y="106.29" width="147.23" height="0.77" transform="matrix(0.28, -0.96, 0.96, 0.28, -10.7, 199.07)"/><rect class="bf" x="53.09" y="106.07" width="147.23" height="0.77" transform="translate(-11.02 198.21) rotate(-73.71)"/><rect class="bg" x="52.35" y="105.86" width="147.23" height="0.77" transform="matrix(0.28, -0.96, 0.96, 0.28, -11.35, 197.34)"/><rect class="bh" x="51.62" y="105.64" width="147.23" height="0.77" transform="matrix(0.28, -0.96, 0.96, 0.28, -11.67, 196.48)"/><rect class="bh" x="50.88" y="105.43" width="147.23" height="0.77" transform="matrix(0.28, -0.96, 0.96, 0.28, -12, 195.61)"/><rect class="bi" x="50.14" y="105.21" width="147.23" height="0.77" transform="translate(-12.32 194.75) rotate(-73.71)"/><rect class="bi" x="49.4" y="104.99" width="147.23" height="0.77" transform="matrix(0.28, -0.96, 0.96, 0.28, -12.64, 193.89)"/><rect class="bj" x="48.66" y="104.78" width="147.23" height="0.77" transform="matrix(0.28, -0.96, 0.96, 0.28, -12.97, 193.02)"/><rect class="bk" x="47.93" y="104.56" width="147.23" height="0.77" transform="matrix(0.28, -0.96, 0.96, 0.28, -13.29, 192.16)"/><rect class="bl" x="47.19" y="104.35" width="147.23" height="0.77" transform="matrix(0.28, -0.96, 0.96, 0.28, -13.62, 191.3)"/><rect class="bm" x="46.45" y="104.13" width="147.23" height="0.77" transform="translate(-13.94 190.43) rotate(-73.71)"/><rect class="bn" x="45.71" y="103.92" width="147.23" height="0.77" transform="matrix(0.28, -0.96, 0.96, 0.28, -14.26, 189.57)"/><rect class="bo" x="44.97" y="103.7" width="147.23" height="0.77" transform="matrix(0.28, -0.96, 0.96, 0.28, -14.59, 188.71)"/><rect class="bp" x="44.24" y="103.48" width="147.23" height="0.77" transform="matrix(0.28, -0.96, 0.96, 0.28, -14.91, 187.84)"/><rect class="bp" x="43.5" y="103.27" width="147.23" height="0.77" transform="translate(-15.24 186.98) rotate(-73.71)"/><rect class="bq" x="42.76" y="103.05" width="147.23" height="0.77" transform="matrix(0.28, -0.96, 0.96, 0.28, -15.56, 186.12)"/><rect class="br" x="42.02" y="102.84" width="147.23" height="0.77" transform="matrix(0.28, -0.96, 0.96, 0.28, -15.88, 185.25)"/><rect class="bs" x="41.28" y="102.62" width="147.23" height="0.77" transform="matrix(0.28, -0.96, 0.96, 0.28, -16.21, 184.39)"/><rect class="bs" x="40.54" y="102.41" width="147.23" height="0.77" transform="translate(-16.53 183.52) rotate(-73.71)"/><rect class="bt" x="39.81" y="102.19" width="147.23" height="0.77" transform="matrix(0.28, -0.96, 0.96, 0.28, -16.85, 182.66)"/><rect class="bu" x="39.07" y="101.97" width="147.23" height="0.77" transform="matrix(0.28, -0.96, 0.96, 0.28, -17.18, 181.8)"/><rect class="bv" x="38.33" y="101.76" width="147.23" height="0.77" transform="matrix(0.28, -0.96, 0.96, 0.28, -17.5, 180.93)"/><rect class="bv" x="37.59" y="101.54" width="147.23" height="0.77" transform="matrix(0.28, -0.96, 0.96, 0.28, -17.83, 180.07)"/><rect class="bw" x="36.85" y="101.33" width="147.23" height="0.77" transform="translate(-18.15 179.21) rotate(-73.71)"/><rect class="bw" x="36.12" y="101.11" width="147.23" height="0.77" transform="matrix(0.28, -0.96, 0.96, 0.28, -18.47, 178.34)"/><rect class="bx" x="35.38" y="100.9" width="147.23" height="0.77" transform="matrix(0.28, -0.96, 0.96, 0.28, -18.8, 177.48)"/><rect class="bx" x="34.64" y="100.68" width="147.23" height="0.77" transform="matrix(0.28, -0.96, 0.96, 0.28, -19.12, 176.62)"/><rect class="bx" x="33.9" y="100.46" width="147.23" height="0.77" transform="translate(-19.45 175.75) rotate(-73.71)"/><rect class="bx" x="33.16" y="100.25" width="147.23" height="0.77" transform="matrix(0.28, -0.96, 0.96, 0.28, -19.77, 174.89)"/><rect class="bx" x="32.43" y="100.03" width="147.23" height="0.77" transform="matrix(0.28, -0.96, 0.96, 0.28, -20.09, 174.03)"/><rect class="bx" x="31.69" y="99.82" width="147.23" height="0.77" transform="matrix(0.28, -0.96, 0.96, 0.28, -20.42, 173.16)"/><rect class="bx" x="30.95" y="99.6" width="147.23" height="0.77" transform="translate(-20.74 172.3) rotate(-73.71)"/><polygon class="bx" points="83.54 170.53 25.14 153.46 25.14 23.49 105.24 23.49 124.85 29.22 83.54 170.53"/></g><path class="cb" d="M157.21,45a26.31,26.31,0,0,1,3.39,4.66,36.12,36.12,0,0,1,2.48,5.22,42.07,42.07,0,0,1,1.66,5.54,42.55,42.55,0,0,1,.84,5.73,55.19,55.19,0,0,1-3.51,22.75c-5.43,14.51-14.72,27.33-25.79,38a136.43,136.43,0,0,1-18,14.54,126.41,126.41,0,0,1-20.2,11.21A89.84,89.84,0,0,1,76,159.33a49.52,49.52,0,0,1-11.54.45,25.88,25.88,0,0,1-11-3.29,25.5,25.5,0,0,0,11,3A48.29,48.29,0,0,0,76,158.86,90.35,90.35,0,0,0,97.8,152a134.89,134.89,0,0,0,37.79-25.78,118.52,118.52,0,0,0,14.94-17.4,96.08,96.08,0,0,0,10.79-20.19,54.58,54.58,0,0,0,3.75-22.45,41.78,41.78,0,0,0-.71-5.68,40.37,40.37,0,0,0-1.52-5.53,34.7,34.7,0,0,0-2.36-5.24A25.56,25.56,0,0,0,157.21,45Z"/><path class="cb" d="M152.8,161.71a26,26,0,0,0,3.73-4.37,35.65,35.65,0,0,0,2.86-5,40,40,0,0,0,2.07-5.35,44.77,44.77,0,0,0,1.28-5.59,54.81,54.81,0,0,0-1.49-22.71,96.27,96.27,0,0,0-8.72-21.17,118.56,118.56,0,0,0-13.12-18.8,134.74,134.74,0,0,0-35-29.43,90.24,90.24,0,0,0-21-9.07A48.72,48.72,0,0,0,72,38.42a25.8,25.8,0,0,0-11.25,1.94A26,26,0,0,1,72,38.18a49,49,0,0,1,11.43,1.6,90,90,0,0,1,21.31,8.88,126.48,126.48,0,0,1,19,13.18A134.94,134.94,0,0,1,140.16,78.1c10,11.76,17.91,25.44,21.86,40.41a55.46,55.46,0,0,1,1.22,23,43.43,43.43,0,0,1-1.41,5.61,40.39,40.39,0,0,1-2.21,5.35,34.9,34.9,0,0,1-3,4.94A26.12,26.12,0,0,1,152.8,161.71Z"/></svg>