<svg width="21" height="39" viewBox="0 0 21 39" fill="none" xmlns="http://www.w3.org/2000/svg">
<path fill-rule="evenodd" clip-rule="evenodd" d="M19.9848 0.807722L15.11 0.799805C9.63329 0.799805 6.09401 4.47552 6.09401 10.1647V14.4825H1.1926C0.769065 14.4825 0.426086 14.8301 0.426086 15.2588V21.5148C0.426086 21.9436 0.769456 22.2907 1.1926 22.2907H6.09401V38.0767C6.09401 38.5054 6.43699 38.8526 6.86053 38.8526H13.2555C13.679 38.8526 14.022 38.505 14.022 38.0767V22.2907H19.7529C20.1764 22.2907 20.5194 21.9436 20.5194 21.5148L20.5218 15.2588C20.5218 15.0529 20.4408 14.8558 20.2973 14.7101C20.1537 14.5644 19.9582 14.4825 19.7548 14.4825H14.022V10.8222C14.022 9.06293 14.4362 8.16983 16.7001 8.16983L19.984 8.16865C20.4072 8.16865 20.7501 7.82107 20.7501 7.39273V1.58364C20.7501 1.1557 20.4076 0.808514 19.9848 0.807722Z" fill="#625B5B"/>
</svg>
