<svg width="49" height="48" viewBox="0 0 49 48" fill="none" xmlns="http://www.w3.org/2000/svg">
<path fill-rule="evenodd" clip-rule="evenodd" d="M3.78671 17.6406H12.5508V44.0912H3.78671V17.6406Z" fill="#625B5B"/>
<path fill-rule="evenodd" clip-rule="evenodd" d="M35.1679 16.7656C31.3251 16.7656 29.0334 18.1792 26.6065 21.2748V17.6408H17.8424V44.0913H26.6734V29.7554C26.6734 26.7266 28.2237 23.7652 31.7292 23.7652C35.2348 23.7652 37.3244 26.7266 37.3244 29.688V44.0913H46.1561V29.0828C46.1561 18.6501 39.0775 16.7656 35.1679 16.7656Z" fill="#625B5B"/>
<path fill-rule="evenodd" clip-rule="evenodd" d="M8.20241 4.78613C5.3038 4.78613 3.01138 6.87237 3.01138 9.43028C3.01138 11.9882 5.3038 14.0744 8.20241 14.0744C11.101 14.0744 13.3934 11.9882 13.3934 9.43028C13.3934 6.87237 11.101 4.78613 8.20241 4.78613Z" fill="#625B5B"/>
</svg>
