<svg width="39" height="39" viewBox="0 0 39 39" fill="none" xmlns="http://www.w3.org/2000/svg">
<path d="M27.7566 0.799805C33.5679 0.799805 38.2954 5.52752 38.2954 11.3383V28.4494C38.2954 34.2602 33.5679 38.9879 27.7566 38.9879H10.6456C4.83476 38.9879 0.107269 34.2604 0.107269 28.4494V11.3383C0.107269 5.52752 4.83476 0.799805 10.6456 0.799805H27.7566ZM19.2013 10.0542C13.7754 10.0542 9.36122 14.4684 9.36122 19.8943C9.36122 25.32 13.7754 29.734 19.2013 29.734C24.6272 29.734 29.0414 25.32 29.0414 19.8943C29.0414 14.4684 24.6272 10.0542 19.2013 10.0542ZM19.2013 13.4422C22.759 13.4422 25.6532 16.3364 25.6532 19.8941C25.6532 23.4515 22.7588 26.3455 19.2013 26.3455C15.6439 26.3455 12.7495 23.4515 12.7495 19.8941C12.7495 16.3364 15.6437 13.4422 19.2013 13.4422ZM29.4541 7.18121C28.8013 7.18121 28.16 7.44549 27.699 7.90855C27.2357 8.36935 26.9694 9.01085 26.9694 9.66591C26.9694 10.3189 27.236 10.9602 27.699 11.4233C28.1598 11.8841 28.8013 12.1506 29.4541 12.1506C30.1092 12.1506 30.7484 11.8841 31.2115 11.4233C31.6745 10.9602 31.9388 10.3187 31.9388 9.66591C31.9388 9.01085 31.6745 8.36935 31.2115 7.90855C30.7507 7.44549 30.1092 7.18121 29.4541 7.18121Z" fill="#625B5B"/>
</svg>
