<svg xmlns="http://www.w3.org/2000/svg" viewBox="0 0 45 45"><defs><style>.a{fill:#010101;}</style></defs><title>Syntella icon</title><path class="a" d="M21.47,3.68,1.4,28.52a1.13,1.13,0,0,0,.26,1.65L21.72,43.54a1.13,1.13,0,0,0,1.28,0L42.1,30.16a1.14,1.14,0,0,0,.25-1.62L23.24,3.7A1.12,1.12,0,0,0,21.47,3.68Zm3.42,3.8,16,20.84a1.14,1.14,0,0,1-.25,1.62l-16,11.22a1.13,1.13,0,0,1-1.78-.93V8.16A1.13,1.13,0,0,1,24.89,7.48Zm-3,.5V40.32a1.13,1.13,0,0,1-1.76.94l-17-11.32a1.13,1.13,0,0,1-.25-1.65l17-21A1.13,1.13,0,0,1,21.86,8Z"/></svg>