<svg xmlns="http://www.w3.org/2000/svg" viewBox="0 0 45 45"><defs><style>.a{fill:#010101;}</style></defs><title>Syntella icon</title><path class="a" d="M30.59,40.57H14.41a14.42,14.42,0,0,1,0-28.83H30.59a14.42,14.42,0,0,1,0,28.83ZM14.41,13a13.18,13.18,0,0,0,0,26.35H30.59a13.18,13.18,0,0,0,0-26.35Z"/><path class="a" d="M12.78,24.81a.88.88,0,0,1-.63-.26L10.4,22.8a.9.9,0,0,1,0-1.27l1.75-1.75a.9.9,0,0,1,1.27,0l1.75,1.75a.88.88,0,0,1,.26.63.9.9,0,0,1-.26.64l-1.75,1.75A.93.93,0,0,1,12.78,24.81Zm0-4.8a.39.39,0,0,0-.28.12l-1.75,1.75a.4.4,0,0,0,0,.57L12.5,24.2a.42.42,0,0,0,.57,0l1.75-1.75a.45.45,0,0,0,.12-.29.42.42,0,0,0-.12-.28l-1.75-1.75A.4.4,0,0,0,12.78,20Z"/><path class="a" d="M16.91,28.93a.9.9,0,0,1-.64-.26l-1.75-1.75a.9.9,0,0,1,0-1.27l1.75-1.75a.92.92,0,0,1,1.27,0l1.75,1.75a.9.9,0,0,1,0,1.27l-1.75,1.75A.88.88,0,0,1,16.91,28.93Zm0-4.8a.45.45,0,0,0-.29.12L14.87,26a.4.4,0,0,0,0,.57l1.75,1.75a.42.42,0,0,0,.57,0l1.75-1.75a.4.4,0,0,0,0-.57l-1.75-1.75A.42.42,0,0,0,16.91,24.13Z"/><path class="a" d="M8.93,28.66a.89.89,0,0,1-.64-.26L6.55,26.66a.91.91,0,0,1,0-1.28l1.74-1.74a.92.92,0,0,1,1.27,0l1.75,1.74a.91.91,0,0,1,0,1.28L9.56,28.4A.85.85,0,0,1,8.93,28.66Zm0-4.79a.4.4,0,0,0-.29.12L6.9,25.73a.41.41,0,0,0,0,.58l1.74,1.74a.41.41,0,0,0,.58,0L11,26.31a.41.41,0,0,0,0-.58L9.22,24A.4.4,0,0,0,8.93,23.87Z"/><path class="a" d="M13.05,32.79a.9.9,0,0,1-.64-.27l-1.74-1.74a.91.91,0,0,1,0-1.28l1.74-1.74a.91.91,0,0,1,1.28,0l1.74,1.74a.91.91,0,0,1,0,1.28l-1.74,1.74A.9.9,0,0,1,13.05,32.79Zm0-4.8a.42.42,0,0,0-.29.12L11,29.85a.41.41,0,0,0,0,.58l1.74,1.74a.41.41,0,0,0,.58,0l1.74-1.74a.41.41,0,0,0,0-.58l-1.74-1.74A.42.42,0,0,0,13.05,28Z"/><path class="a" d="M29.35,26a.33.33,0,0,1-.24-.1.33.33,0,0,1,0-.47l5.82-5.81a.33.33,0,0,1,.47.47L29.58,25.9A.3.3,0,0,1,29.35,26Z"/><path class="a" d="M29.35,29.05a.33.33,0,0,1-.24-.1.33.33,0,0,1,0-.47l5.82-5.81a.33.33,0,0,1,.47.47L29.58,29A.3.3,0,0,1,29.35,29.05Z"/><path class="a" d="M29.35,32.29a.36.36,0,0,1-.24-.09.34.34,0,0,1,0-.48l5.82-5.81a.33.33,0,0,1,.47.47L29.58,32.2A.33.33,0,0,1,29.35,32.29Z"/><path class="a" d="M22.5,11.56a1,1,0,0,1-1-1V3.1a1,1,0,0,1,2,0v7.46A1,1,0,0,1,22.5,11.56Z"/></svg>