<svg xmlns="http://www.w3.org/2000/svg" viewBox="0 0 45 45"><defs><style>.a{fill:#010101;}</style></defs><title>Syntella icon</title><path class="a" d="M33.85,6.7V3.31H11.15V6.7H5.3v7.72a6.53,6.53,0,0,0,6.53,6.52h.1A11.37,11.37,0,0,0,22.5,28.19l.17,0v3.74H21.58A6.55,6.55,0,0,0,15,38.45V39H31.57v-.5A6.55,6.55,0,0,0,25,31.91H23.3V28.12a11.36,11.36,0,0,0,9.77-7.18h.11a6.53,6.53,0,0,0,6.52-6.52V6.7ZM6.65,14.42V8h4.5v8.8a11.22,11.22,0,0,0,.35,2.73A5.18,5.18,0,0,1,6.65,14.42ZM30.54,37.94H16.07a5.55,5.55,0,0,1,5.51-5H25A5.55,5.55,0,0,1,30.54,37.94Zm2-21.1a10,10,0,1,1-20,0V4.65h20Zm5.85-2.42a5.18,5.18,0,0,1-4.85,5.15,11.22,11.22,0,0,0,.35-2.73V8h4.5Z"/></svg>