<svg width="40" height="27" viewBox="0 0 40 27" fill="none" xmlns="http://www.w3.org/2000/svg">
<path d="M38.4879 4.96364C38.0184 2.9854 36.3502 1.52591 34.3419 1.3082C29.5862 0.793286 24.7728 0.790598 19.9815 0.793286C15.1894 0.790598 10.3751 0.793286 5.61948 1.3082C3.61238 1.52591 1.94535 2.9854 1.47584 4.96364C0.807601 7.78087 0.800079 10.8561 0.800079 13.7567C0.800079 16.6572 0.800079 19.7321 1.46832 22.5489C1.93704 24.5268 3.60447 25.9863 5.61275 26.2044C10.368 26.7197 15.1819 26.7224 19.974 26.7197C24.7668 26.7224 29.5795 26.7197 34.3344 26.2044C36.3415 25.9867 38.0101 24.5272 38.4796 22.5489C39.1482 19.7317 39.1506 16.6568 39.1506 13.7567C39.1506 10.8561 39.1561 7.78087 38.4879 4.96364ZM15.0263 19.5301C15.0263 15.4154 15.0263 11.3438 15.0263 7.22871C19.0908 9.28567 23.1283 11.3288 27.2185 13.3984C23.141 15.4496 19.1014 17.4805 15.0263 19.5301Z" fill="#625B5B"/>
</svg>
